<svg width="386" height="56" viewBox="0 0 386 56" fill="none" xmlns="http://www.w3.org/2000/svg">
<path d="M133.624 36.216C133.624 38.04 133.144 39.608 132.184 40.92C131.224 42.232 129.944 43.24 128.344 43.944C126.776 44.648 125.032 45 123.112 45H106.84V10.92H124.408C126.008 10.92 127.384 11.352 128.536 12.216C129.688 13.048 130.584 14.136 131.224 15.48C131.864 16.824 132.184 18.2 132.184 19.608C132.184 21.272 131.752 22.84 130.888 24.312C130.056 25.752 128.856 26.824 127.288 27.528C129.208 28.104 130.744 29.16 131.896 30.696C133.048 32.2 133.624 34.04 133.624 36.216ZM112.216 15.576V25.608H122.104C123.448 25.608 124.568 25.144 125.464 24.216C126.36 23.256 126.808 22.056 126.808 20.616C126.808 19.144 126.392 17.944 125.56 17.016C124.728 16.056 123.672 15.576 122.392 15.576H112.216ZM128.104 35.208C128.104 33.8 127.656 32.568 126.76 31.512C125.896 30.456 124.792 29.928 123.448 29.928H112.216V40.344H123.112C124.52 40.344 125.704 39.848 126.664 38.856C127.624 37.832 128.104 36.616 128.104 35.208ZM138.607 9.96H143.887V37.752C143.887 39.032 144.079 39.848 144.463 40.2C144.847 40.552 145.327 40.728 145.903 40.728C146.543 40.728 147.151 40.664 147.727 40.536C148.303 40.408 148.783 40.248 149.167 40.056L149.935 44.232C149.167 44.552 148.255 44.824 147.199 45.048C146.143 45.272 145.199 45.384 144.367 45.384C142.575 45.384 141.167 44.888 140.143 43.896C139.119 42.872 138.607 41.464 138.607 39.672V9.96ZM152.996 15.768V9.96H158.276V15.768H152.996ZM152.996 45V19.896H158.276V45H152.996ZM187.133 45H181.853V30.936C181.853 28.568 181.469 26.856 180.701 25.8C179.965 24.712 178.861 24.168 177.389 24.168C176.365 24.168 175.341 24.424 174.317 24.936C173.325 25.448 172.429 26.152 171.629 27.048C170.829 27.944 170.253 28.952 169.901 30.072V45H164.621V19.896H169.421V24.936C170.381 23.272 171.773 21.944 173.597 20.952C175.421 19.96 177.437 19.464 179.645 19.464C181.629 19.464 183.165 19.944 184.253 20.904C185.341 21.832 186.093 23.064 186.509 24.6C186.925 26.136 187.133 27.832 187.133 29.688V45ZM210.734 45L202.67 33.432L198.542 37.368V45H193.262V9.96H198.542V32.04L210.158 19.944H215.822L206.078 30.456L216.35 45H210.734ZM242.192 15.672H230.864V45H225.44V15.672H214.064V10.92H242.192V15.672ZM257.014 24.456C254.966 24.52 253.142 25 251.542 25.896C249.974 26.76 248.854 28.008 248.182 29.64V45H242.902V19.896H247.798V25.512C248.662 23.784 249.798 22.408 251.206 21.384C252.614 20.328 254.102 19.752 255.67 19.656C255.958 19.656 256.214 19.656 256.438 19.656C256.662 19.656 256.854 19.672 257.014 19.704V24.456ZM258.985 37.656C258.985 36.056 259.433 34.664 260.329 33.48C261.225 32.264 262.473 31.336 264.073 30.696C265.705 30.024 267.577 29.688 269.689 29.688C270.809 29.688 271.945 29.784 273.097 29.976C274.281 30.136 275.321 30.376 276.217 30.696V29.112C276.217 27.352 275.689 25.976 274.633 24.984C273.577 23.992 272.057 23.496 270.073 23.496C268.697 23.496 267.369 23.736 266.089 24.216C264.809 24.696 263.481 25.4 262.105 26.328L260.329 22.776C261.993 21.688 263.657 20.872 265.321 20.328C267.017 19.752 268.793 19.464 270.649 19.464C274.009 19.464 276.649 20.36 278.569 22.152C280.521 23.912 281.497 26.424 281.497 29.688V39.048C281.497 39.656 281.593 40.088 281.785 40.344C282.009 40.6 282.377 40.744 282.889 40.776V45C282.409 45.096 281.977 45.16 281.593 45.192C281.209 45.224 280.889 45.24 280.633 45.24C279.481 45.24 278.617 44.968 278.041 44.424C277.497 43.848 277.177 43.208 277.081 42.504L276.937 41.064C275.849 42.472 274.457 43.56 272.761 44.328C271.065 45.096 269.353 45.48 267.625 45.48C265.961 45.48 264.473 45.144 263.161 44.472C261.849 43.768 260.825 42.824 260.089 41.64C259.353 40.456 258.985 39.128 258.985 37.656ZM274.969 39.192C275.801 38.36 276.217 37.576 276.217 36.84V33.96C274.329 33.256 272.409 32.904 270.457 32.904C268.537 32.904 266.969 33.304 265.753 34.104C264.569 34.872 263.977 35.912 263.977 37.224C263.977 38.312 264.409 39.32 265.273 40.248C266.169 41.144 267.449 41.592 269.113 41.592C270.233 41.592 271.321 41.368 272.377 40.92C273.433 40.472 274.297 39.896 274.969 39.192ZM286.318 32.472C286.318 30.072 286.798 27.896 287.758 25.944C288.75 23.96 290.094 22.392 291.79 21.24C293.486 20.056 295.438 19.464 297.646 19.464C299.566 19.464 301.294 19.96 302.83 20.952C304.398 21.944 305.614 23.176 306.478 24.648V9.96H311.758V39.048C311.758 39.656 311.87 40.088 312.094 40.344C312.318 40.6 312.686 40.744 313.198 40.776V45C312.206 45.16 311.438 45.24 310.894 45.24C309.902 45.24 309.054 44.968 308.35 44.424C307.678 43.848 307.326 43.144 307.294 42.312L307.246 40.44C306.286 42.04 304.99 43.288 303.358 44.184C301.726 45.048 300.03 45.48 298.27 45.48C295.966 45.48 293.902 44.888 292.078 43.704C290.286 42.52 288.878 40.952 287.854 39C286.83 37.016 286.318 34.84 286.318 32.472ZM306.478 35.976V29.4C306.094 28.376 305.518 27.464 304.75 26.664C303.982 25.832 303.102 25.176 302.11 24.696C301.15 24.216 300.19 23.976 299.23 23.976C297.726 23.976 296.414 24.392 295.294 25.224C294.206 26.024 293.342 27.08 292.702 28.392C292.094 29.704 291.79 31.096 291.79 32.568C291.79 34.104 292.126 35.512 292.798 36.792C293.502 38.072 294.446 39.096 295.63 39.864C296.814 40.6 298.142 40.968 299.614 40.968C300.51 40.968 301.438 40.76 302.398 40.344C303.39 39.896 304.254 39.304 304.99 38.568C305.726 37.8 306.222 36.936 306.478 35.976ZM329.841 45.48C327.249 45.48 324.977 44.888 323.025 43.704C321.073 42.52 319.553 40.952 318.465 39C317.377 37.016 316.833 34.856 316.833 32.52C316.833 30.152 317.377 27.976 318.465 25.992C319.553 24.008 321.073 22.424 323.025 21.24C324.977 20.056 327.265 19.464 329.889 19.464C332.513 19.464 334.785 20.072 336.705 21.288C338.625 22.472 340.097 24.04 341.121 25.992C342.177 27.944 342.705 30.04 342.705 32.28C342.705 33.08 342.657 33.72 342.561 34.2H322.449C322.545 35.672 322.945 36.968 323.649 38.088C324.385 39.176 325.297 40.04 326.385 40.68C327.505 41.288 328.721 41.592 330.033 41.592C331.441 41.592 332.769 41.24 334.017 40.536C335.265 39.832 336.129 38.904 336.609 37.752L341.121 39.048C340.257 40.936 338.817 42.488 336.801 43.704C334.817 44.888 332.497 45.48 329.841 45.48ZM322.305 30.696H337.473C337.345 29.256 336.929 27.992 336.225 26.904C335.521 25.784 334.609 24.92 333.489 24.312C332.401 23.672 331.185 23.352 329.841 23.352C328.529 23.352 327.313 23.672 326.193 24.312C325.105 24.92 324.209 25.784 323.505 26.904C322.801 27.992 322.401 29.256 322.305 30.696ZM361.124 24.456C359.076 24.52 357.252 25 355.652 25.896C354.084 26.76 352.964 28.008 352.292 29.64V45H347.012V19.896H351.908V25.512C352.772 23.784 353.908 22.408 355.316 21.384C356.724 20.328 358.212 19.752 359.78 19.656C360.068 19.656 360.324 19.656 360.548 19.656C360.772 19.656 360.964 19.672 361.124 19.704V24.456ZM373.893 45.48C371.781 45.48 369.781 45.128 367.893 44.424C366.005 43.72 364.389 42.696 363.045 41.352L365.013 37.8C366.453 39.08 367.893 40.008 369.333 40.584C370.773 41.16 372.229 41.448 373.701 41.448C375.173 41.448 376.373 41.176 377.301 40.632C378.229 40.056 378.693 39.224 378.693 38.136C378.693 37.368 378.453 36.776 377.973 36.36C377.493 35.944 376.789 35.608 375.861 35.352C374.965 35.096 373.877 34.776 372.597 34.392C370.805 33.848 369.301 33.288 368.085 32.712C366.869 32.104 365.957 31.368 365.349 30.504C364.741 29.64 364.437 28.536 364.437 27.192C364.437 24.76 365.349 22.872 367.173 21.528C368.997 20.152 371.381 19.464 374.325 19.464C376.149 19.464 377.829 19.752 379.365 20.328C380.933 20.872 382.309 21.736 383.493 22.92L381.237 26.424C379.061 24.44 376.661 23.448 374.037 23.448C372.885 23.448 371.813 23.672 370.821 24.12C369.861 24.568 369.381 25.4 369.381 26.616C369.381 27.64 369.813 28.376 370.677 28.824C371.541 29.272 372.821 29.752 374.517 30.264C376.437 30.84 378.085 31.416 379.461 31.992C380.869 32.536 381.941 33.256 382.677 34.152C383.445 35.016 383.829 36.216 383.829 37.752C383.829 40.184 382.917 42.088 381.093 43.464C379.269 44.808 376.869 45.48 373.893 45.48Z" fill="#0057FF"/>
<g clip-path="url(#clip0_5_24)">
<path d="M37.0255 12.1316C40.8774 11.5027 44.9652 11.1883 49.2102 11.1883C65.3253 11.1883 79.2394 15.9835 85.9213 22.9013C82.148 13.2322 65.6398 6 45.7513 6C23.1114 6 4.71655 15.5119 4.71655 27.1463C4.71655 30.5265 6.28876 33.7495 9.04014 36.5795C8.48986 35.2431 8.17542 33.7495 8.17542 32.3346C8.17542 25.181 15.0145 18.8921 25.4698 15.0402C21.382 20.6216 20.2028 28.1682 23.1114 35.0073C25.3125 40.1956 29.4003 43.8903 34.1955 45.8556C31.5228 43.8117 29.4003 41.0603 27.9853 37.8373C23.8975 28.1682 27.9067 17.0841 37.0255 12.1316Z" fill="#0057FF"/>
<path d="M48.9744 43.2614C45.1225 43.8903 41.0347 44.2048 36.7112 44.2048C20.6746 44.2048 6.76051 39.4095 0 32.4918C3.85192 42.1609 20.3601 49.3931 40.2486 49.3931C62.8885 49.3931 81.2834 39.8812 81.2834 28.2468C81.2834 24.8665 79.7112 21.6435 76.9598 18.8135C77.5101 20.1499 77.8245 21.6435 77.8245 23.0585C77.8245 30.2121 70.9854 36.5009 60.5302 40.3528C64.6179 34.7715 65.7971 27.2249 62.8885 20.3857C60.6874 15.1974 56.5996 11.5027 51.8044 9.53748C54.4771 11.5814 56.5996 14.3327 58.0146 17.5558C62.1024 27.2249 58.0932 38.309 48.9744 43.2614Z" fill="#0057FF"/>
<path d="M50.0466 27.9324C50.0466 31.9543 46.7861 35.2148 42.7641 35.2148C38.7422 35.2148 35.4817 31.9543 35.4817 27.9324C35.4817 23.9104 38.7422 20.6499 42.7641 20.6499C46.7861 20.6499 50.0466 23.9104 50.0466 27.9324Z" stroke="#C1272D"/>
<path d="M38.05 30H37.45C37.3307 30 37.2162 29.9684 37.1318 29.9121C37.0474 29.8559 37 29.7796 37 29.7V25.3C37 25.2204 37.0474 25.1441 37.1318 25.0879C37.2162 25.0316 37.3307 25 37.45 25H38.05C38.1693 25 38.2838 25.0316 38.3682 25.0879C38.4526 25.1441 38.5 25.2204 38.5 25.3V29.7C38.5 29.7796 38.4526 29.8559 38.3682 29.9121C38.2838 29.9684 38.1693 30 38.05 30Z" fill="#C1272D"/>
<path d="M41.05 28H40.45C40.3307 28 40.2162 27.9684 40.1318 27.9121C40.0474 27.8559 40 27.7796 40 27.7V23.3C40 23.2204 40.0474 23.1441 40.1318 23.0879C40.2162 23.0316 40.3307 23 40.45 23H41.05C41.1693 23 41.2838 23.0316 41.3682 23.0879C41.4526 23.1441 41.5 23.2204 41.5 23.3V27.7C41.5 27.7796 41.4526 27.8559 41.3682 27.9121C41.2838 27.9684 41.1693 28 41.05 28Z" fill="#31920E"/>
<path d="M44.05 31H43.45C43.3307 31 43.2162 30.9684 43.1318 30.9121C43.0474 30.8559 43 30.7796 43 30.7V26.3C43 26.2204 43.0474 26.1441 43.1318 26.0879C43.2162 26.0316 43.3307 26 43.45 26H44.05C44.1693 26 44.2838 26.0316 44.3682 26.0879C44.4526 26.1441 44.5 26.2204 44.5 26.3V30.7C44.5 30.7796 44.4526 30.8559 44.3682 30.9121C44.2838 30.9684 44.1693 31 44.05 31Z" fill="#C1272D"/>
<path d="M47.05 30H46.45C46.3307 30 46.2162 29.9684 46.1318 29.9121C46.0474 29.8559 46 29.7796 46 29.7V25.3C46 25.2204 46.0474 25.1441 46.1318 25.0879C46.2162 25.0316 46.3307 25 46.45 25H47.05C47.1693 25 47.2838 25.0316 47.3682 25.0879C47.4526 25.1441 47.5 25.2204 47.5 25.3V29.7C47.5 29.7796 47.4526 29.8559 47.3682 29.9121C47.2838 29.9684 47.1693 30 47.05 30Z" fill="#31920E"/>
</g>
<defs>
<clipPath id="clip0_5_24">
<rect width="86" height="43.3931" fill="white" transform="translate(0 6)"/>
</clipPath>
</defs>
</svg>
